# Blender v2.82 (sub 7) OBJ File: 'sammark.blend'
# www.blender.org
mtllib sammark.mtl
o Plane.001
v -0.631495 0.116064 0.343695
v -0.822158 0.116064 0.153033
v -0.704459 0.116064 0.329182
v -0.766314 0.116064 0.287852
v -0.807645 0.116064 0.225996
v 0.822158 0.116064 0.153033
v 0.631495 0.116064 0.343695
v 0.807645 0.116064 0.225996
v 0.766314 0.116064 0.287852
v 0.704459 0.116064 0.329182
v -0.631495 0.116064 -0.868085
v -0.822158 0.116064 -0.677423
v -0.704459 0.116064 -0.853572
v -0.766314 0.116064 -0.812242
v -0.807645 0.116064 -0.750386
v 0.631495 0.116064 -0.868085
v 0.822158 0.116064 -0.677423
v 0.704459 0.116064 -0.853572
v 0.766314 0.116064 -0.812242
v 0.807645 0.116064 -0.750386
vn 0.0000 1.0000 0.0000
usemtl Material
s off
f 2//1 5//1 4//1 3//1 1//1 7//1 10//1 9//1 8//1 6//1 17//1 20//1 19//1 18//1 16//1 11//1 13//1 14//1 15//1 12//1
o Plane
v -0.772151 0.000000 -1.000000
v -1.000000 0.000000 -0.772151
v -0.859345 0.000000 -0.982656
v -0.933264 0.000000 -0.933264
v -0.982656 0.000000 -0.859345
v 0.772151 0.000000 -1.000000
v 1.000000 0.000000 -0.772151
v 0.859345 0.000000 -0.982656
v 0.933264 0.000000 -0.933264
v 0.982656 0.000000 -0.859345
v -0.772151 0.000000 1.000000
v -1.000000 0.000000 0.772151
v -0.859345 0.000000 0.982656
v -0.933264 0.000000 0.933264
v -0.982656 0.000000 0.859345
v 0.772151 0.000000 1.000000
v 1.000000 0.000000 0.772151
v 0.859345 0.000000 0.982656
v 0.933264 0.000000 0.933264
v 0.982656 0.000000 0.859345
v -0.822158 0.000000 0.153032
v -0.807645 0.000000 0.225996
v -0.766314 0.000000 0.287852
v -0.704459 0.000000 0.329182
v -0.631495 0.000000 0.343695
v 0.631495 0.000000 0.343695
v 0.704459 0.000000 0.329182
v 0.766315 0.000000 0.287852
v 0.807645 0.000000 0.225996
v 0.822158 0.000000 0.153033
v 0.822158 0.000000 -0.677423
v 0.807645 0.000000 -0.750386
v 0.766315 0.000000 -0.812242
v 0.704459 0.000000 -0.853572
v 0.631495 0.000000 -0.868085
v -0.631495 0.000000 -0.868085
v -0.704459 0.000000 -0.853572
v -0.766314 0.000000 -0.812242
v -0.807644 0.000000 -0.750386
v -0.822158 0.000000 -0.677423
v 1.000000 0.150579 0.772151
v 1.000000 0.150579 -0.772151
v 0.982656 0.150579 -0.859345
v 0.933264 0.150579 -0.933264
v 0.859345 0.150579 -0.982656
v 0.772151 0.150579 -1.000000
v -0.772151 0.150579 -1.000000
v -0.859345 0.150579 -0.982656
v -0.933264 0.150579 -0.933264
v -0.982656 0.150579 -0.859345
v -1.000000 0.150579 -0.772151
v -1.000000 0.150579 0.772151
v -0.982656 0.150579 0.859345
v -0.933264 0.150579 0.933264
v -0.859345 0.150579 0.982656
v -0.772151 0.150579 1.000000
v 0.772151 0.150579 1.000000
v 0.859345 0.150579 0.982656
v 0.933264 0.150579 0.933264
v 0.982656 0.150579 0.859345
v -0.822158 0.150579 0.153032
v -0.807645 0.150579 0.225996
v -0.766314 0.150579 0.287852
v -0.704459 0.150579 0.329182
v -0.631495 0.150579 0.343695
v 0.631495 0.150579 0.343695
v 0.704459 0.150579 0.329182
v 0.766315 0.150579 0.287852
v 0.807645 0.150579 0.225996
v 0.822158 0.150579 0.153033
v 0.822158 0.150579 -0.677423
v 0.807645 0.150579 -0.750386
v 0.766315 0.150579 -0.812242
v 0.704459 0.150579 -0.853572
v 0.631495 0.150579 -0.868085
v -0.631495 0.150579 -0.868085
v -0.704459 0.150579 -0.853572
v -0.766314 0.150579 -0.812242
v -0.807644 0.150579 -0.750386
v -0.822158 0.150579 -0.677423
v 1.000000 0.000000 0.772151
v 1.000000 0.000000 -0.772151
v 0.982656 0.000000 -0.859345
v 0.933264 0.000000 -0.933264
v 0.859345 0.000000 -0.982656
v 0.772151 0.000000 -1.000000
v -0.772151 0.000000 -1.000000
v -0.859345 0.000000 -0.982656
v -0.933264 0.000000 -0.933264
v -0.982656 0.000000 -0.859345
v -1.000000 0.000000 -0.772151
v -1.000000 0.000000 0.772151
v -0.982656 0.000000 0.859345
v -0.933264 0.000000 0.933264
v -0.859345 0.000000 0.982656
v -0.772151 0.000000 1.000000
v 0.772151 0.000000 1.000000
v 0.859345 0.000000 0.982656
v 0.933264 0.000000 0.933264
v 0.982656 0.000000 0.859345
v -0.822158 0.000000 0.153032
v -0.807645 0.000000 0.225996
v -0.766314 0.000000 0.287852
v -0.704459 0.000000 0.329182
v -0.631495 0.000000 0.343695
v 0.631495 0.000000 0.343695
v 0.704459 0.000000 0.329182
v 0.766315 0.000000 0.287852
v 0.807645 0.000000 0.225996
v 0.822158 0.000000 0.153033
v 0.822158 0.000000 -0.677423
v 0.807645 0.000000 -0.750386
v 0.766315 0.000000 -0.812242
v 0.704459 0.000000 -0.853572
v 0.631495 0.000000 -0.868085
v -0.631495 0.000000 -0.868085
v -0.704459 0.000000 -0.853572
v -0.766314 0.000000 -0.812242
v -0.807644 0.000000 -0.750386
v -0.822158 0.000000 -0.677423
v 1.000000 0.150579 0.772151
v 1.000000 0.150579 -0.772151
v 0.982656 0.150579 -0.859345
v 0.933264 0.150579 -0.933264
v 0.859345 0.150579 -0.982656
v 0.772151 0.150579 -1.000000
v -0.772151 0.150579 -1.000000
v -0.859345 0.150579 -0.982656
v -0.933264 0.150579 -0.933264
v -0.982656 0.150579 -0.859345
v -1.000000 0.150579 -0.772151
v -1.000000 0.150579 0.772151
v -0.982656 0.150579 0.859345
v -0.933264 0.150579 0.933264
v -0.859345 0.150579 0.982656
v -0.772151 0.150579 1.000000
v 0.772151 0.150579 1.000000
v 0.859345 0.150579 0.982656
v 0.933264 0.150579 0.933264
v 0.982656 0.150579 0.859345
v -0.822158 0.150579 0.153032
v -0.807645 0.150579 0.225996
v -0.766314 0.150579 0.287852
v -0.704459 0.150579 0.329182
v -0.631495 0.150579 0.343695
v 0.631495 0.150579 0.343695
v 0.704459 0.150579 0.329182
v 0.766315 0.150579 0.287852
v 0.807645 0.150579 0.225996
v 0.822158 0.150579 0.153033
v 0.822158 0.150579 -0.677423
v 0.807645 0.150579 -0.750386
v 0.766315 0.150579 -0.812242
v 0.704459 0.150579 -0.853572
v 0.631495 0.150579 -0.868085
v -0.631495 0.150579 -0.868085
v -0.704459 0.150579 -0.853572
v -0.766314 0.150579 -0.812242
v -0.807644 0.150579 -0.750386
v -0.822158 0.150579 -0.677423
vn 0.0000 -1.0000 0.0000
vn 0.0000 1.0000 0.0000
vn -0.7071 0.0000 0.7071
vn -0.3827 0.0000 0.9239
vn 0.9952 0.0000 0.0980
vn 0.9952 0.0000 -0.0980
vn -0.9239 0.0000 -0.3827
vn -0.7071 0.0000 -0.7071
vn -0.0980 0.0000 0.9952
vn 0.9239 0.0000 -0.3827
vn -0.9952 0.0000 -0.0980
vn 0.0980 0.0000 0.9952
vn 0.7071 0.0000 -0.7071
vn -0.9952 0.0000 0.0980
vn 0.3827 0.0000 0.9239
vn 0.3827 0.0000 -0.9239
vn -0.9239 0.0000 0.3827
vn 0.7071 0.0000 0.7071
vn 0.0980 0.0000 -0.9952
vn 0.9239 0.0000 0.3827
vn -0.0980 0.0000 -0.9952
vn -0.3827 0.0000 -0.9239
usemtl Material.001
s 1
f 102//2 131//2 132//2 133//2 134//2 135//2 136//2 137//2 138//2 139//2 140//2 121//2 112//2 111//2 110//2 109//2 108//2 107//2 106//2 105//2 104//2 103//2
f 170//3 169//3 168//3 167//3 166//3 165//3 164//3 163//3 162//3 161//3 152//3 153//3 154//3 155//3 156//3 157//3 158//3 159//3 160//3 141//3 142//3 171//3
f 142//3 143//3 144//3 145//3 146//3 147//3 148//3 149//3 150//3 151//3 152//3 161//3 180//3 179//3 178//3 177//3 176//3 175//3 174//3 173//3 172//3 171//3
f 130//2 131//2 102//2 101//2 120//2 119//2 118//2 117//2 116//2 115//2 114//2 113//2 112//2 121//2 122//2 123//2 124//2 125//2 126//2 127//2 128//2 129//2
f 34//4 33//5 75//5 74//4
f 37//6 27//7 62//7 61//6
f 49//8 48//9 88//9 89//8
f 33//5 31//10 76//10 75//5
f 27//7 30//11 63//11 62//7
f 50//12 49//8 89//8 90//12
f 31//10 36//13 77//13 76//10
f 30//11 29//14 64//14 63//11
f 51//15 50//12 90//12 91//15
f 36//13 38//16 78//16 77//13
f 29//14 28//17 65//17 64//14
f 52//18 51//15 91//15 92//18
f 38//16 39//19 79//19 78//16
f 28//17 26//20 66//20 65//17
f 53//4 52//18 92//18 93//4
f 39//19 40//21 80//21 79//19
f 26//20 21//22 67//22 66//20
f 54//5 53//4 93//4 94//5
f 40//21 37//6 61//6 80//21
f 21//22 23//23 68//23 67//22
f 55//10 54//5 94//5 95//10
f 42//11 41//7 81//7 82//11
f 23//23 24//9 69//9 68//23
f 56//13 55//10 95//10 96//13
f 43//14 42//11 82//11 83//14
f 24//9 25//8 70//8 69//9
f 57//16 56//13 96//13 97//16
f 44//17 43//14 83//14 84//17
f 25//8 22//12 71//12 70//8
f 58//19 57//16 97//16 98//19
f 45//20 44//17 84//17 85//20
f 22//12 32//15 72//15 71//12
f 59//21 58//19 98//19 99//21
f 46//22 45//20 85//20 86//22
f 32//15 35//18 73//18 72//15
f 60//6 59//21 99//21 100//6
f 47//23 46//22 86//22 87//23
f 35//18 34//4 74//4 73//18
f 41//7 60//6 100//6 81//7
f 48//9 47//23 87//23 88//9
